{
    "accessors": [
        {
            "bufferView": 0,
            "componentType": 5125,
            "count": 714,
            "max": [
                237.0
            ],
            "min": [
                0.0
            ],
            "name": "mesh0_idx_accessor",
            "type": "SCALAR"
        },
        {
            "bufferView": 1,
            "componentType": 5126,
            "count": 238,
            "max": [
                0.11806837469339371,
                0.11805351078510284,
                0.023641614243388176
            ],
            "min": [
                -0.11806837469339371,
                -0.11805351078510284,
                0.0
            ],
            "name": "mesh0_coord_accessor",
            "type": "VEC3"
        },
        {
            "bufferView": 2,
            "componentType": 5126,
            "count": 238,
            "max": [
                0.9961947202682495,
                0.9960693120956421,
                0.08715574443340302
            ],
            "min": [
                -0.9961947202682495,
                -0.9960693120956421,
                0.08715574443340302
            ],
            "name": "mesh0_norm_accessor",
            "type": "VEC3"
        },
        {
            "bufferView": 3,
            "componentType": 5125,
            "count": 510,
            "max": [
                169.0
            ],
            "min": [
                0.0
            ],
            "name": "mesh1_idx_accessor",
            "type": "SCALAR"
        },
        {
            "bufferView": 4,
            "componentType": 5126,
            "count": 170,
            "max": [
                0.11940636485815048,
                0.11940636485815048,
                0.0
            ],
            "min": [
                -0.11940636485815048,
                -0.11940636485815048,
                0.0
            ],
            "name": "mesh1_coord_accessor",
            "type": "VEC3"
        },
        {
            "bufferView": 5,
            "componentType": 5126,
            "count": 170,
            "max": [
                1.2246468525851679e-16,
                0.0,
                -1.0
            ],
            "min": [
                1.2246468525851679e-16,
                0.0,
                -1.0
            ],
            "name": "mesh1_norm_accessor",
            "type": "VEC3"
        },
        {
            "bufferView": 6,
            "componentType": 5125,
            "count": 14982,
            "max": [
                2647.0
            ],
            "min": [
                0.0
            ],
            "name": "mesh2_idx_accessor",
            "type": "SCALAR"
        },
        {
            "bufferView": 7,
            "componentType": 5126,
            "count": 2648,
            "max": [
                0.1247350424528122,
                0.12467587739229202,
                0.03500000014901161
            ],
            "min": [
                -0.1247350424528122,
                -0.12467587739229202,
                0.0005255555151961744
            ],
            "name": "mesh2_coord_accessor",
            "type": "VEC3"
        },
        {
            "bufferView": 8,
            "componentType": 5126,
            "count": 2648,
            "max": [
                0.9994908571243286,
                0.9990168213844299,
                1.0
            ],
            "min": [
                -0.9994908571243286,
                -0.9990168213844299,
                -0.47444450855255127
            ],
            "name": "mesh2_norm_accessor",
            "type": "VEC3"
        },
        {
            "bufferView": 9,
            "componentType": 5125,
            "count": 306,
            "max": [
                102.0
            ],
            "min": [
                0.0
            ],
            "name": "mesh3_idx_accessor",
            "type": "SCALAR"
        },
        {
            "bufferView": 10,
            "componentType": 5126,
            "count": 103,
            "max": [
                0.07999999821186066,
                0.07996205985546112,
                0.03500000014901161
            ],
            "min": [
                -0.07999999821186066,
                -0.07996205985546112,
                0.03500000014901161
            ],
            "name": "mesh3_coord_accessor",
            "type": "VEC3"
        },
        {
            "bufferView": 11,
            "componentType": 5126,
            "count": 103,
            "max": [
                0.0,
                0.0,
                1.0
            ],
            "min": [
                0.0,
                0.0,
                1.0
            ],
            "name": "mesh3_norm_accessor",
            "type": "VEC3"
        },
        {
            "bufferView": 12,
            "componentType": 5125,
            "count": 300,
            "max": [
                100.0
            ],
            "min": [
                0.0
            ],
            "name": "mesh4_idx_accessor",
            "type": "SCALAR"
        },
        {
            "bufferView": 13,
            "componentType": 5126,
            "count": 101,
            "max": [
                0.07999999821186066,
                0.07998993247747421,
                0.03200000151991844
            ],
            "min": [
                -0.07999999821186066,
                -0.07998993247747421,
                0.03200000151991844
            ],
            "name": "mesh4_coord_accessor",
            "type": "VEC3"
        },
        {
            "bufferView": 14,
            "componentType": 5126,
            "count": 101,
            "max": [
                1.2246468525851679e-16,
                0.0,
                -1.0
            ],
            "min": [
                1.2246468525851679e-16,
                0.0,
                -1.0
            ],
            "name": "mesh4_norm_accessor",
            "type": "VEC3"
        },
        {
            "bufferView": 15,
            "componentType": 5125,
            "count": 6150,
            "max": [
                1158.0
            ],
            "min": [
                0.0
            ],
            "name": "mesh5_idx_accessor",
            "type": "SCALAR"
        },
        {
            "bufferView": 16,
            "componentType": 5126,
            "count": 1159,
            "max": [
                0.11806837469339371,
                0.11805351078510284,
                0.03200000151991844
            ],
            "min": [
                -0.11806837469339371,
                -0.11805351078510284,
                0.023641614243388176
            ],
            "name": "mesh5_coord_accessor",
            "type": "VEC3"
        },
        {
            "bufferView": 17,
            "componentType": 5126,
            "count": 1159,
            "max": [
                0.6848909258842468,
                0.6848047375679016,
                -0.7286455631256104
            ],
            "min": [
                -0.6848909258842468,
                -0.6848047375679016,
                -1.0
            ],
            "name": "mesh5_norm_accessor",
            "type": "VEC3"
        },
        {
            "bufferView": 18,
            "componentType": 5125,
            "count": 6300,
            "max": [
                1199.0
            ],
            "min": [
                0.0
            ],
            "name": "mesh6_idx_accessor",
            "type": "SCALAR"
        },
        {
            "bufferView": 19,
            "componentType": 5126,
            "count": 1200,
            "max": [
                0.12028665095567703,
                0.12028665095567703,
                0.0005255555151961744
            ],
            "min": [
                -0.12028665095567703,
                -0.12028665095567703,
                0.0
            ],
            "name": "mesh6_coord_accessor",
            "type": "VEC3"
        },
        {
            "bufferView": 20,
            "componentType": 5126,
            "count": 1200,
            "max": [
                0.880285382270813,
                0.880285382270813,
                -0.47444450855255127
            ],
            "min": [
                -0.880285382270813,
                -0.880285382270813,
                -1.0
            ],
            "name": "mesh6_norm_accessor",
            "type": "VEC3"
        }
    ],
    "asset": {
        "version": "2.0"
    },
    "bufferViews": [
        {
            "buffer": 0,
            "byteLength": 2856,
            "name": "mesh0_idx_bufferView",
            "target": 34963
        },
        {
            "buffer": 1,
            "byteLength": 2856,
            "name": "mesh0_coord_bufferView",
            "target": 34962
        },
        {
            "buffer": 2,
            "byteLength": 2856,
            "name": "mesh0_norm_bufferView",
            "target": 34962
        },
        {
            "buffer": 3,
            "byteLength": 2040,
            "name": "mesh1_idx_bufferView",
            "target": 34963
        },
        {
            "buffer": 4,
            "byteLength": 2040,
            "name": "mesh1_coord_bufferView",
            "target": 34962
        },
        {
            "buffer": 5,
            "byteLength": 2040,
            "name": "mesh1_norm_bufferView",
            "target": 34962
        },
        {
            "buffer": 6,
            "byteLength": 59928,
            "name": "mesh2_idx_bufferView",
            "target": 34963
        },
        {
            "buffer": 7,
            "byteLength": 31776,
            "name": "mesh2_coord_bufferView",
            "target": 34962
        },
        {
            "buffer": 8,
            "byteLength": 31776,
            "name": "mesh2_norm_bufferView",
            "target": 34962
        },
        {
            "buffer": 9,
            "byteLength": 1224,
            "name": "mesh3_idx_bufferView",
            "target": 34963
        },
        {
            "buffer": 10,
            "byteLength": 1236,
            "name": "mesh3_coord_bufferView",
            "target": 34962
        },
        {
            "buffer": 11,
            "byteLength": 1236,
            "name": "mesh3_norm_bufferView",
            "target": 34962
        },
        {
            "buffer": 12,
            "byteLength": 1200,
            "name": "mesh4_idx_bufferView",
            "target": 34963
        },
        {
            "buffer": 13,
            "byteLength": 1212,
            "name": "mesh4_coord_bufferView",
            "target": 34962
        },
        {
            "buffer": 14,
            "byteLength": 1212,
            "name": "mesh4_norm_bufferView",
            "target": 34962
        },
        {
            "buffer": 15,
            "byteLength": 24600,
            "name": "mesh5_idx_bufferView",
            "target": 34963
        },
        {
            "buffer": 16,
            "byteLength": 13908,
            "name": "mesh5_coord_bufferView",
            "target": 34962
        },
        {
            "buffer": 17,
            "byteLength": 13908,
            "name": "mesh5_norm_bufferView",
            "target": 34962
        },
        {
            "buffer": 18,
            "byteLength": 25200,
            "name": "mesh6_idx_bufferView",
            "target": 34963
        },
        {
            "buffer": 19,
            "byteLength": 14400,
            "name": "mesh6_coord_bufferView",
            "target": 34962
        },
        {
            "buffer": 20,
            "byteLength": 14400,
            "name": "mesh6_norm_bufferView",
            "target": 34962
        }
    ],
    "buffers": [
        {
            "byteLength": 2856,
            "name": "mesh0_idx_buffer",
            "uri": "data:application/octet-stream;base64,"
        },
        {
            "byteLength": 2856,
            "name": "mesh0_coord_buffer",
            "uri": "data:application/octet-stream;base64,"
        },
        {
            "byteLength": 2856,
            "name": "mesh0_norm_buffer",
            "uri": "data:application/octet-stream;base64,"
        },
        {
            "byteLength": 2040,
            "name": "mesh1_idx_buffer",
            "uri": "data:application/octet-stream;base64,"
        },
        {
            "byteLength": 2040,
            "name": "mesh1_coord_buffer",
            "uri": "data:application/octet-stream;base64,"
        },
        {
            "byteLength": 2040,
            "name": "mesh1_norm_buffer",
            "uri": "data:application/octet-stream;base64,"
        },
        {
            "byteLength": 59928,
            "name": "mesh2_idx_buffer",
            "uri": "data:application/octet-stream;base64,"
        },
        {
            "byteLength": 31776,
            "name": "mesh2_coord_buffer",
            "uri": "data:application/octet-stream;base64,"
        },
        {
            "byteLength": 31776,
            "name": "mesh2_norm_buffer",
            "uri": "data:application/octet-stream;base64,"
        },
        {
            "byteLength": 1224,
            "name": "mesh3_idx_buffer",
            "uri": "data:application/octet-stream;base64,"
        },
        {
            "byteLength": 1236,
            "name": "mesh3_coord_buffer",
            "uri": "data:application/octet-stream;base64,"
        },
        {
            "byteLength": 1236,
            "name": "mesh3_norm_buffer",
            "uri": "data:application/octet-stream;base64,"
        },
        {
            "byteLength": 1200,
            "name": "mesh4_idx_buffer",
            "uri": "data:application/octet-stream;base64,"
        },
        {
            "byteLength": 1212,
            "name": "mesh4_coord_buffer",
            "uri": "data:application/octet-stream;base64,"
        },
        {
            "byteLength": 1212,
            "name": "mesh4_norm_buffer",
            "uri": "data:application/octet-stream;base64,"
        },
        {
            "byteLength": 24600,
            "name": "mesh5_idx_buffer",
            "uri": "data:application/octet-stream;base64,"
        },
        {
            "byteLength": 13908,
            "name": "mesh5_coord_buffer",
            "uri": "data:application/octet-stream;base64,"
        },
        {
            "byteLength": 13908,
            "name": "mesh5_norm_buffer",
            "uri": "data:application/octet-stream;base64,"
        },
        {
            "byteLength": 25200,
            "name": "mesh6_idx_buffer",
            "uri": "data:application/octet-stream;base64,"
        },
        {
            "byteLength": 14400,
            "name": "mesh6_coord_buffer",
            "uri": "data:application/octet-stream;base64,"
        },
        {
            "byteLength": 14400,
            "name": "mesh6_norm_buffer",
            "uri": "data:application/octet-stream;base64,"
        }
    ],
    "materials": [
        {
            "doubleSided": true,
            "name": "0.007843_0.333333_0.690196_0.000000",
            "pbrMetallicRoughness": {
                "baseColorFactor": [
                    0.007843137718737125,
                    0.3333333432674408,
                    0.6901960968971252,
                    1.0
                ],
                "metallicFactor": 0.0
            }
        }
    ],
    "meshes": [
        {
            "name": "mesh0_mesh",
            "primitives": [
                {
                    "attributes": {
                        "NORMAL": 2,
                        "POSITION": 1
                    },
                    "indices": 0,
                    "material": 0
                }
            ]
        },
        {
            "name": "mesh1_mesh",
            "primitives": [
                {
                    "attributes": {
                        "NORMAL": 5,
                        "POSITION": 4
                    },
                    "indices": 3,
                    "material": 0
                }
            ]
        },
        {
            "name": "mesh2_mesh",
            "primitives": [
                {
                    "attributes": {
                        "NORMAL": 8,
                        "POSITION": 7
                    },
                    "indices": 6,
                    "material": 0
                }
            ]
        },
        {
            "name": "mesh3_mesh",
            "primitives": [
                {
                    "attributes": {
                        "NORMAL": 11,
                        "POSITION": 10
                    },
                    "indices": 9,
                    "material": 0
                }
            ]
        },
        {
            "name": "mesh4_mesh",
            "primitives": [
                {
                    "attributes": {
                        "NORMAL": 14,
                        "POSITION": 13
                    },
                    "indices": 12,
                    "material": 0
                }
            ]
        },
        {
            "name": "mesh5_mesh",
            "primitives": [
                {
                    "attributes": {
                        "NORMAL": 17,
                        "POSITION": 16
                    },
                    "indices": 15,
                    "material": 0
                }
            ]
        },
        {
            "name": "mesh6_mesh",
            "primitives": [
                {
                    "attributes": {
                        "NORMAL": 20,
                        "POSITION": 19
                    },
                    "indices": 18,
                    "material": 0
                }
            ]
        }
    ],
    "nodes": [
        {
            "children": [
                1
            ]
        },
        {
            "children": [
                2,
                4,
                6,
                8,
                10,
                12,
                14
            ]
        },
        {
            "children": [
                3
            ]
        },
        {
            "mesh": 0,
            "name": "mesh0_meshnode_0"
        },
        {
            "children": [
                5
            ]
        },
        {
            "mesh": 1,
            "name": "mesh1_meshnode_1"
        },
        {
            "children": [
                7
            ]
        },
        {
            "mesh": 2,
            "name": "mesh2_meshnode_2"
        },
        {
            "children": [
                9
            ]
        },
        {
            "mesh": 3,
            "name": "mesh3_meshnode_3"
        },
        {
            "children": [
                11
            ]
        },
        {
            "mesh": 4,
            "name": "mesh4_meshnode_4"
        },
        {
            "children": [
                13
            ]
        },
        {
            "mesh": 5,
            "name": "mesh5_meshnode_5"
        },
        {
            "children": [
                15
            ]
        },
        {
            "mesh": 6,
            "name": "mesh6_meshnode_6"
        }
    ],
    "scene": 0,
    "scenes": [
        {
            "name": "Root",
            "nodes": [
                0
            ]
        }
    ]
}